<?xml version="1.0" standalone="no"?>
<!DOCTYPE svg PUBLIC "-//W3C//DTD SVG 20010904//EN"
 "http://www.w3.org/TR/2001/REC-SVG-20010904/DTD/svg10.dtd">
<svg version="1.0" xmlns="http://www.w3.org/2000/svg"
 width="700.000000pt" height="700.000000pt" viewBox="0 0 700.000000 700.000000"
 preserveAspectRatio="xMidYMid meet">
<metadata>
Created by potrace 1.11, written by Peter Selinger 2001-2013
</metadata>
<g transform="translate(0.000000,700.000000) scale(0.100000,-0.100000)"
fill="#000000" stroke="none">
<path d="M3205 6994 c-469 -47 -833 -145 -1212 -329 -712 -344 -1261 -879
-1617 -1575 -177 -346 -283 -676 -343 -1070 -25 -162 -27 -199 -27 -505 -1
-355 8 -464 60 -722 89 -442 265 -861 524 -1248 510 -761 1321 -1304 2210
-1480 267 -53 344 -59 690 -60 348 0 461 9 715 61 891 179 1697 720 2205 1479
309 461 491 946 567 1505 26 193 26 707 0 900 -56 412 -154 735 -332 1095
-358 724 -908 1267 -1638 1620 -328 158 -657 257 -1037 311 -110 15 -661 28
-765 18z m709 -1484 c66 -34 132 -109 151 -173 13 -43 15 -145 15 -654 l0
-603 603 0 c679 0 669 1 751 -71 26 -23 59 -65 74 -93 l27 -51 0 -365 0 -365
-27 -51 c-15 -28 -47 -69 -72 -91 -84 -74 -73 -73 -752 -73 l-604 0 0 -603 c0
-676 1 -669 -69 -748 -21 -25 -63 -58 -92 -74 l-54 -30 -365 0 -365 0 -51 27
c-28 15 -70 48 -93 74 -72 82 -71 72 -71 751 l0 603 -604 0 c-679 0 -668 -1
-752 73 -25 22 -57 63 -72 91 l-27 51 0 365 0 365 27 51 c15 28 48 70 74 93
82 72 72 71 751 71 l603 0 0 603 c0 503 2 612 15 653 25 86 116 172 203 193
20 5 192 9 382 8 l345 -2 49 -25z"/>
</g>
</svg>
